# xmcd CD database file
#
# Track frame offsets:
#	150
#	4097
#	47752
#	64214
#	89589
#	114034
#	131883
#	148062
#	176879
#	209019
#	238550
#
# Disc length: 4202 seconds
#
# Revision: 0
# Processed by: cddbd v1.5.1PL2 Copyright (c) Steve Scherf et al.
# Submitted via: CDex 1.51
#
DISCID=a310680b
DTITLE=Jazzaholics Big Band - Souled Out
DYEAR=2004
DGENRE=Jazz
TTITLE0=Up To Date (Thomas Reich, Arr.: Christian A. Magin)
TTITLE1=From The Eyes Of A Child (Andy Classen)
TTITLE2=Fever (John Davenport, Eddie Cooney, Arr.: Roger Holmes)
TTITLE3=Moten Swing (Buster and Benny Moten, Arr.: Ernie Wilkins)
TTITLE4=Children Of Sanchez (Chuck Mangione, Arr.: Victor Lopez)
TTITLE5=Summertime (George Gershwin, Arr.: Dave Wolpe)
TTITLE6=Switching Gears (Lars Halle)
TTITLE7=Two Seconds To Midnight (Alan Baylock)
TTITLE8=Boom Boom (John Lee Hooker, Arr.: Paul Murtha)
TTITLE9=Round Midnight (Thelonius Monk, Cootie Williams, Arr.: Mike Tomaro)
TTITLE10=Sonidos De La Calle (Lars Halle)
EXTD=YEAR: 2004
EXTT0=
EXTT1=
EXTT2=
EXTT3=
EXTT4=
EXTT5=
EXTT6=
EXTT7=
EXTT8=
EXTT9=
EXTT10=
PLAYORDER=
